<?xml version="1.0" encoding="utf-8"?>
<!-- Generator: Adobe Illustrator 24.0.3, SVG Export Plug-In . SVG Version: 6.00 Build 0)  -->
<svg version="1.1" id="_x30_2_x5F_Aeneas_x5F_logo_x5F_outline_x5F_horizontal_x5F_SRC_copy"
	 xmlns="http://www.w3.org/2000/svg" xmlns:xlink="http://www.w3.org/1999/xlink" x="0px" y="0px" viewBox="0 0 2458.9 588.9"
	 style="enable-background:new 0 0 2458.9 588.9;" xml:space="preserve">
<style type="text/css">
	.st0{fill:#020F50;}
	.st1{fill:#A2A2A2;}
	.st2{display:none;}
	.st3{display:inline;}
	.st4{fill:#C5C5C5;}
</style>
<g id="Layer_3_copy">
	<g>
		<path class="st0" d="M640,372.8c0-18.4,6-33.2,18-44.3c12-11.1,27.5-18.1,46.5-21.1l53.1-7.9c10.8-1.5,16.2-6.6,16.2-15.4
			c0-8.2-3.1-14.9-9.4-20.2c-6.3-5.3-15.3-7.9-27-7.9c-12.3,0-22,3.4-29.2,10.1c-7.2,6.7-11.2,15.1-12.1,25l-51.8-11
			c2-18.7,11.3-35.3,27.7-49.6c16.4-14.3,38-21.5,65-21.5c32.2,0,55.9,7.7,71.1,23c15.2,15.4,22.8,35.1,22.8,59v106.2
			c0,12.9,0.9,24.3,2.6,34.2h-53.6c-1.5-6.4-2.2-15.1-2.2-25.9c-13.8,21.4-35,32-63.7,32c-22.2,0-40.2-6.4-53.8-19.3
			C646.8,405.6,640,390.3,640,372.8z M726.5,394.3c13.8,0,25.1-3.9,34-11.6c8.9-7.8,13.4-20.6,13.4-38.4v-9.7l-48.7,7.5
			c-17.9,2.6-26.8,11.7-26.8,27.2c0,7,2.5,13,7.5,17.8C710.9,391.9,717.7,394.3,726.5,394.3z"/>
		<path class="st0" d="M1033.8,355.2l48.7,14.5c-5.9,19.9-17.3,36.3-34.5,49.2s-38.4,19.3-63.9,19.3c-31,0-57.4-10.5-79-31.4
			c-21.7-20.9-32.5-48.9-32.5-84.1c0-33.4,10.5-60.7,31.6-81.9c21.1-21.2,45.9-31.8,74.6-31.8c33.4,0,59.5,10,78.4,29.9
			c18.9,19.9,28.3,47.3,28.3,82.1c0,2.3-0.1,5-0.2,7.9c-0.2,2.9-0.2,5.3-0.2,7l-0.4,3.1H930.2c0.6,14,6.1,25.8,16.7,35.1
			c10.5,9.4,23.1,14,37.8,14C1009.5,388.1,1025.9,377.2,1033.8,355.2z M931.5,299h96.6c-0.6-12-4.9-22.1-13-30.3
			c-8.1-8.2-19.8-12.3-35.3-12.3c-14,0-25.5,4.4-34.2,13.2C936.8,278.4,932.1,288.2,931.5,299z"/>
		<path class="st0" d="M1190.1,307.4v124.2h-58.4v-216h56.6v26.8c6.1-10.5,14.9-18.6,26.3-24.1c11.4-5.6,23.4-8.3,36-8.3
			c25.5,0,44.8,8,58.2,23.9c13.3,16,20,36.5,20,61.7v136.1h-58.4v-126c0-12.9-3.3-23.3-9.9-31.2c-6.6-7.9-16.6-11.9-30.1-11.9
			c-12.3,0-22.1,4.2-29.4,12.7C1193.8,283.8,1190.1,294.5,1190.1,307.4z"/>
		<path class="st0" d="M1533,355.2l48.7,14.5c-5.9,19.9-17.3,36.3-34.5,49.2s-38.4,19.3-63.9,19.3c-31,0-57.4-10.5-79-31.4
			c-21.7-20.9-32.5-48.9-32.5-84.1c0-33.4,10.5-60.7,31.6-81.9c21.1-21.2,45.9-31.8,74.6-31.8c33.4,0,59.5,10,78.4,29.9
			c18.9,19.9,28.3,47.3,28.3,82.1c0,2.3-0.1,5-0.2,7.9c-0.2,2.9-0.2,5.3-0.2,7l-0.4,3.1h-154.5c0.6,14,6.1,25.8,16.7,35.1
			c10.5,9.4,23.1,14,37.8,14C1508.7,388.1,1525.1,377.2,1533,355.2z M1430.7,299h96.6c-0.6-12-4.9-22.1-13-30.3
			c-8.1-8.2-19.8-12.3-35.3-12.3c-14,0-25.5,4.4-34.2,13.2C1435.9,278.4,1431.3,288.2,1430.7,299z"/>
		<path class="st0" d="M1617.7,372.8c0-18.4,6-33.2,18-44.3c12-11.1,27.5-18.1,46.5-21.1l53.1-7.9c10.8-1.5,16.2-6.6,16.2-15.4
			c0-8.2-3.1-14.9-9.4-20.2c-6.3-5.3-15.3-7.9-27-7.9c-12.3,0-22,3.4-29.2,10.1c-7.2,6.7-11.2,15.1-12.1,25l-51.8-11
			c2-18.7,11.3-35.3,27.7-49.6c16.4-14.3,38-21.5,65-21.5c32.2,0,55.9,7.7,71.1,23c15.2,15.4,22.8,35.1,22.8,59v106.2
			c0,12.9,0.9,24.3,2.6,34.2h-53.6c-1.5-6.4-2.2-15.1-2.2-25.9c-13.8,21.4-35,32-63.7,32c-22.2,0-40.2-6.4-53.8-19.3
			C1624.5,405.6,1617.7,390.3,1617.7,372.8z M1704.2,394.3c13.8,0,25.1-3.9,34-11.6c8.9-7.8,13.4-20.6,13.4-38.4v-9.7l-48.7,7.5
			c-17.9,2.6-26.8,11.7-26.8,27.2c0,7,2.5,13,7.5,17.8C1688.5,391.9,1695.4,394.3,1704.2,394.3z"/>
		<path class="st0" d="M1849,371.5l50-11c0.6,9.4,4.3,17.2,11.2,23.5c6.9,6.3,16.3,9.4,28.3,9.4c9.1,0,16.1-2,21.1-6.1
			c5-4.1,7.5-9.2,7.5-15.4c0-10.8-7.8-17.8-23.3-21.1l-28.5-6.6c-20.2-4.4-35.3-12.3-45.4-23.7s-15.1-25-15.1-40.8
			c0-19.6,7.7-36.3,23-50c15.4-13.8,34.6-20.6,57.7-20.6c14.6,0,27.5,2.1,38.6,6.4c11.1,4.2,19.8,9.7,25.9,16.2s10.8,13.2,14,20
			c3.2,6.7,5.3,13.3,6.1,19.8l-48.7,11c-1.2-7.6-4.6-14.3-10.3-20.2c-5.7-5.9-14.1-8.8-25.2-8.8c-7.6,0-14.1,2.1-19.5,6.1
			c-5.4,4.1-8.1,9.2-8.1,15.4c0,10.5,6.6,17,19.8,19.3l30.7,6.6c20.8,4.4,36.7,12.4,47.6,24.1c11,11.7,16.5,25.8,16.5,42.1
			c0,19.3-7.3,36-22,50c-14.6,14-35.3,21.1-61.9,21.1c-15.2,0-28.8-2.3-40.8-6.8c-12-4.5-21.3-10.4-27.9-17.6
			c-6.6-7.2-11.6-14.3-14.9-21.5C1852,385.1,1849.9,378.2,1849,371.5z"/>
		<path class="st1" d="M2078.2,425c-5.9-5.9-8.8-13-8.8-21.5c0-8.5,2.9-15.7,8.8-21.7c5.9-6,13-9,21.5-9c8.5,0,15.7,3,21.7,9
			c6,6,9,13.2,9,21.7c0,8.5-3,15.7-9,21.5c-6,5.9-13.2,8.8-21.7,8.8C2091.2,433.8,2084,430.9,2078.2,425z"/>
		<path class="st1" d="M2219.5,431.6h-30.7V213.7h30.7V431.6z"/>
		<path class="st1" d="M2350.5,431.6h-75.6V213.7h76.2c29.3,0,53.9,9.7,73.8,29c19.9,19.4,29.8,46.1,29.8,80.4
			c0,34-10,60.6-30.1,79.7C2404.4,422,2379.7,431.6,2350.5,431.6z M2305,404.9h44.6c21.3,0,39-7.1,53-21.2c14-14.1,21-34.3,21-60.5
			c0-26.4-6.9-46.8-20.7-61.2c-13.8-14.3-31.4-21.5-52.7-21.5H2305V404.9z"/>
	</g>
</g>
<g>
	<g id="Aeneas_x5F_Logo_x5F_Outline_x5F_EXP_2_">
		<g class="st2">
			<g class="st3">
				<path class="st0" d="M1966.8,434.4c-16.3,0-31.6-3.2-45.6-9.4c-13.3-5.8-25.7-14.4-37.7-26.5l-1.9-1.9l19.1-18.7l1.9,1.9
					c18.2,18.5,39.8,27.9,64.3,27.9c30,0,50.1-16,50.1-39.7v-0.6c0-10.4-2.8-17.2-9.4-22.7c-8.4-6.9-23.5-12.8-44.6-17.4
					c-24.8-5.2-41.5-11.8-52.7-20.7c-12-9.7-17.8-22.6-17.8-39.3v-0.6c0-8.3,1.7-16,5.1-22.8c3.2-7,7.9-13.4,14.1-18.8
					c12.8-10.9,30-16.9,48.5-16.9c12,0,24.5,2.3,37.2,6.9l0.1,0c11.3,4.5,21.5,10.6,31.2,18.4l2.1,1.7l-16.8,20.6l-2.1-1.6
					c-16-12.8-33.4-19.3-51.7-19.3c-12.2,0-23.1,3.7-30.6,10.3c-6.8,5.9-10.4,13.4-10.4,21.5v0.6c0,8.8,2.1,13.7,7.9,18.4
					c7.5,6.1,21.3,11.2,41.9,15.6c26.9,6,44.2,13.2,56.1,23.1c12.5,10.6,18.6,24.7,18.6,42.9v0.6c0,18.7-7.7,35.7-21.7,47.8
					C2008.2,427.9,1989.1,434.4,1966.8,434.4z"/>
				<path class="st0" d="M1837.3,430.7h-28.7l-78.2-180.5l-78.2,180.5h-28.7l93.5-218.9h26.7L1837.3,430.7z"/>
				<path class="st0" d="M1567.5,430.7h-145.7V211.8h145.7v26.7h-119v69.4h88.5v26.7h-88.5V404h119V430.7z"/>
				<path class="st0" d="M1328.2,430.7h-30.3L1178.7,254v176.7H1152V211.8h30.3l119.2,176.7V211.8h26.7V430.7z"/>
				<path class="st0" d="M1066.9,430.7H921.2V211.8h145.7v26.7h-119v69.4h88.5v26.7h-88.5V404h119V430.7z"/>
				<path class="st0" d="M857.6,430.7h-28.7l-78.2-180.5l-78.2,180.5h-28.7l93.5-218.9h26.7L857.6,430.7z"/>
			</g>
		</g>
		<g id="GEO_x5F_SRC_3_">
			<g>
				<path class="st4" d="M396.8,200.2C395.2,112.2,339.4,45.7,287,20.4C247.1,1,210.9,0,199.8,0h-0.5h-0.9h-0.9h-0.5
					c-11.2,0-47.3,1-87.2,20.4C57.4,45.7,1.6,112.2,0,200.2l0,196.3l0.1,9.1c1.6,87.9,69.4,183.4,131.6,183.4v-61l0.7-117.4v-61.2
					c0,0-35.3-0.5-61.6-16.6c-15.4-9.5-29.2-27.8-29.2-27.8S80,273.2,112,269.4c93.7-11.2,63.3,140,63.3,140l23.1,23.7l23.1-23.7
					c0,0-30.4-151.2,63.3-140c32,3.8,70.5,35.4,70.5,35.4s-13.8,18.4-29.2,27.8c-26.3,16.1-61.6,16.6-61.6,16.6v61.2l0.7,117.4v61
					c62.1,0,129.9-95.4,131.6-183.4l0.1-9.1L396.8,200.2z M264.8,208.3v0.4h-4.5c-22.7,2.4-39.1,13.2-52.5,27l-9.3,10.2l-9.3-10.2
					c-13.5-13.8-29.9-24.6-52.5-27h-4.5v-0.4v-13.9c0-36.6,66.4-67.5,66.4-67.5s66.4,30.8,66.4,67.5V208.3z"/>
				<path class="st1" d="M198.4,433.1l23.1-23.7c0,0-30.4-151.2,63.3-140c32,3.8,70.5,35.4,70.5,35.4s-13.8,18.4-29.2,27.8
					c-26.3,16.1-61.6,16.6-61.6,16.6v61.2l0.7,117.4v61c62.1,0,129.9-95.4,131.6-183.4l0.1-9.1l0-130.7
					c-11.5-2.7-22.3-7.3-29.1-11.5c-20.2-12.3-46.2-40.8-84.6-45.4c-6.5-0.8-12.6-1-18.4-0.6v0.4h-4.5c-22.7,2.4-39.1,13.2-52.5,27
					l-9.3,10.2V433.1z"/>
				<path class="st0" d="M113.7,208.9c6.5-0.8,12.6-1,18.4-0.6l0,0v-13.9c0-36.6,66.4-67.5,66.4-67.5s66.4,30.8,66.4,67.5v13.9
					c5.7-0.3,11.8-0.1,18.4,0.6c38.4,4.6,64.4,33,84.6,45.4c6.8,4.2,17.6,8.8,29.1,11.5l0-65.6C395.2,112.2,339.4,45.7,287,20.4
					C247.1,1,210.9,0,199.8,0h-0.5h-0.9h-0.9h-0.5c-11.2,0-47.3,1-87.2,20.4C57.4,45.7,1.6,112.2,0,200.2l0,65.6
					c11.5-2.7,22.3-7.3,29.1-11.5C49.3,242,75.3,213.5,113.7,208.9z"/>
			</g>
		</g>
	</g>
</g>
</svg>
